<svg aria-hidden="true" style="position: absolute; width: 0; height: 0; overflow: hidden;" version="1.1" xmlns="http://www.w3.org/2000/svg" xmlns:xlink="http://www.w3.org/1999/xlink">
<defs>
<symbol id="lsicon-facebook" viewBox="0 0 18 32">
<title>facebook</title>
<path d="M17.12 0.224v4.704h-2.784q-1.536 0-2.080 0.64t-0.544 1.92v3.392h5.248l-0.704 5.28h-4.544v13.568h-5.472v-13.568h-4.544v-5.28h4.544v-3.904q0-3.328 1.856-5.152t4.96-1.824q2.624 0 4.064 0.224z"></path>
</symbol>
<symbol id="lsicon-twitter" viewBox="0 0 30 32">
<title>twitter</title>
<path d="M28.928 7.296q-1.184 1.728-2.88 2.976 0 0.256 0 0.736 0 2.336-0.672 4.64t-2.048 4.448-3.296 3.744-4.608 2.624-5.792 0.96q-4.832 0-8.832-2.592 0.608 0.064 1.376 0.064 4.032 0 7.168-2.464-1.888-0.032-3.36-1.152t-2.048-2.848q0.608 0.096 1.088 0.096 0.768 0 1.536-0.192-2.016-0.416-3.328-1.984t-1.312-3.68v-0.064q1.216 0.672 2.624 0.736-1.184-0.8-1.888-2.048t-0.704-2.752q0-1.568 0.8-2.912 2.176 2.656 5.248 4.256t6.656 1.76q-0.16-0.672-0.16-1.312 0-2.4 1.696-4.064t4.064-1.696q2.528 0 4.224 1.824 1.952-0.384 3.648-1.408-0.64 2.048-2.528 3.2 1.664-0.192 3.328-0.896z"></path>
</symbol>
<symbol id="lsicon-youtube" viewBox="0 0 27 32">
<title>youtube</title>
<path d="M17.344 22.208v3.776q0 1.184-0.704 1.184-0.416 0-0.8-0.384v-5.376q0.384-0.384 0.8-0.384 0.704 0 0.704 1.184zM23.36 22.24v0.8h-1.6v-0.8q0-1.216 0.8-1.216t0.8 1.216zM6.112 18.336h1.92v-1.664h-5.568v1.664h1.888v10.176h1.76v-10.176zM11.264 28.512h1.6v-8.832h-1.6v6.752q-0.544 0.736-1.024 0.736-0.32 0-0.352-0.352-0.032-0.064-0.032-0.64v-6.496h-1.6v6.976q0 0.896 0.16 1.312 0.224 0.672 1.024 0.672 0.864 0 1.824-1.088v0.96zM18.944 25.856v-3.52q0-1.312-0.16-1.76-0.32-0.992-1.28-0.992-0.896 0-1.664 0.96v-3.872h-1.6v11.84h1.6v-0.864q0.8 0.992 1.664 0.992 0.96 0 1.28-0.992 0.16-0.48 0.16-1.792zM24.96 25.664v-0.224h-1.632q0 0.928-0.032 1.088-0.128 0.64-0.704 0.64-0.832 0-0.832-1.216v-1.568h3.2v-1.824q0-1.408-0.48-2.080-0.704-0.896-1.888-0.896-1.216 0-1.92 0.896-0.48 0.672-0.48 2.080v3.072q0 1.408 0.512 2.080 0.704 0.928 1.92 0.928 1.28 0 1.92-0.96 0.32-0.48 0.384-0.96 0.032-0.16 0.032-1.056zM14.112 9.376v-3.744q0-1.248-0.768-1.248t-0.768 1.248v3.744q0 1.248 0.768 1.248t0.768-1.248zM26.944 22.784q0 4.192-0.448 6.24-0.256 1.056-1.056 1.792t-1.824 0.8q-3.264 0.384-9.888 0.384t-9.92-0.384q-1.024-0.096-1.824-0.8t-1.024-1.792q-0.48-1.984-0.48-6.24 0-4.192 0.48-6.24 0.224-1.056 1.024-1.792t1.824-0.832q3.296-0.352 9.92-0.352t9.888 0.352q1.056 0.128 1.824 0.832t1.056 1.792q0.448 1.984 0.448 6.24zM9.12 0h1.824l-2.144 7.136v4.832h-1.792v-4.832q-0.256-1.344-1.088-3.808-0.672-1.824-1.184-3.328h1.92l1.248 4.704zM15.744 5.952v3.104q0 1.472-0.512 2.112-0.672 0.928-1.888 0.928t-1.888-0.928q-0.48-0.672-0.48-2.112v-3.104q0-1.44 0.48-2.080 0.672-0.928 1.888-0.928t1.888 0.928q0.512 0.64 0.512 2.080zM21.728 3.040v8.928h-1.632v-0.992q-0.96 1.12-1.856 1.12-0.8 0-1.056-0.672-0.128-0.416-0.128-1.344v-7.040h1.632v6.56q0 0.608 0 0.64 0.064 0.384 0.384 0.384 0.48 0 1.024-0.768v-6.816h1.632z"></path>
</symbol>
<symbol id="lsicon-rss" viewBox="0 0 25 32">
<title>rss</title>
<path d="M6.848 24q0 1.44-0.992 2.432t-2.432 0.992-2.432-0.992-0.992-2.432 0.992-2.432 2.432-0.992 2.432 0.992 0.992 2.432zM16 26.208q0.032 0.48-0.288 0.832-0.352 0.384-0.864 0.384h-2.4q-0.448 0-0.768-0.288t-0.352-0.736q-0.384-4.096-3.296-7.008t-7.008-3.296q-0.448-0.032-0.736-0.352t-0.288-0.768v-2.4q0-0.512 0.384-0.832 0.288-0.32 0.768-0.32h0.096q2.848 0.224 5.44 1.44t4.64 3.232q2.016 2.016 3.232 4.64t1.44 5.472zM25.152 26.24q0.032 0.48-0.32 0.832-0.32 0.352-0.832 0.352h-2.56q-0.448 0-0.8-0.32t-0.352-0.736q-0.192-3.84-1.792-7.296t-4.128-6.016-6.016-4.128-7.264-1.824q-0.448 0-0.768-0.352t-0.32-0.768v-2.56q0-0.48 0.352-0.832 0.32-0.32 0.8-0.32h0.032q4.704 0.256 8.96 2.144t7.616 5.248q3.328 3.328 5.248 7.616t2.144 8.96z"></path>
</symbol>
<symbol id="lsicon-instagram" viewBox="0 0 27 32">
<title>instagram</title>
<path d="M18.286 16.286q0-1.893-1.339-3.232t-3.232-1.339-3.232 1.339-1.339 3.232 1.339 3.232 3.232 1.339 3.232-1.339 1.339-3.232zM20.75 16.286q0 2.929-2.054 4.982t-4.982 2.054-4.982-2.054-2.054-4.982 2.054-4.982 4.982-2.054 4.982 2.054 2.054 4.982zM22.679 8.964q0 0.679-0.482 1.161t-1.161 0.482-1.161-0.482-0.482-1.161 0.482-1.161 1.161-0.482 1.161 0.482 0.482 1.161zM13.714 5.036q-0.125 0-1.366-0.009t-1.884 0-1.723 0.054-1.839 0.179-1.277 0.33q-0.893 0.357-1.571 1.036t-1.036 1.571q-0.196 0.518-0.33 1.277t-0.179 1.839-0.054 1.723 0 1.884 0.009 1.366-0.009 1.366 0 1.884 0.054 1.723 0.179 1.839 0.33 1.277q0.357 0.893 1.036 1.571t1.571 1.036q0.518 0.196 1.277 0.33t1.839 0.179 1.723 0.054 1.884 0 1.366-0.009 1.366 0.009 1.884 0 1.723-0.054 1.839-0.179 1.277-0.33q0.893-0.357 1.571-1.036t1.036-1.571q0.196-0.518 0.33-1.277t0.179-1.839 0.054-1.723 0-1.884-0.009-1.366 0.009-1.366 0-1.884-0.054-1.723-0.179-1.839-0.33-1.277q-0.357-0.893-1.036-1.571t-1.571-1.036q-0.518-0.196-1.277-0.33t-1.839-0.179-1.723-0.054-1.884 0-1.366 0.009zM27.429 16.286q0 4.089-0.089 5.661-0.179 3.714-2.214 5.75t-5.75 2.214q-1.571 0.089-5.661 0.089t-5.661-0.089q-3.714-0.179-5.75-2.214t-2.214-5.75q-0.089-1.571-0.089-5.661t0.089-5.661q0.179-3.714 2.214-5.75t5.75-2.214q1.571-0.089 5.661-0.089t5.661 0.089q3.714 0.179 5.75 2.214t2.214 5.75q0.089 1.571 0.089 5.661z"></path>
</symbol>
<symbol id="lsicon-telegram" viewBox="0 0 32 32">
<title>telegram</title>
<path d="M16 0c-8.838 0-16 7.162-16 16s7.162 16 16 16 16-7.163 16-16-7.163-16-16-16zM23.863 10.969l-2.625 12.369c-0.181 0.881-0.712 1.087-1.45 0.681l-4-2.956-1.919 1.869c-0.225 0.219-0.4 0.4-0.8 0.4-0.519 0-0.431-0.194-0.606-0.688l-1.363-4.475-3.956-1.231c-0.856-0.262-0.862-0.85 0.194-1.269l15.412-5.95c0.7-0.319 1.381 0.169 1.113 1.25z"></path>
</symbol>
<symbol id="lsicon-wikipedia" viewBox="0 0 32 32">
<title>wikipedia</title>
<path d="M30.212 7.3c0 0.1-0.031 0.194-0.094 0.281-0.063 0.081-0.131 0.125-0.212 0.125-0.625 0.063-1.137 0.263-1.531 0.6-0.4 0.338-0.806 0.994-1.225 1.95l-6.45 14.544c-0.044 0.137-0.163 0.2-0.356 0.2-0.15 0-0.269-0.069-0.356-0.2l-3.619-7.563-4.162 7.563c-0.088 0.137-0.2 0.2-0.356 0.2-0.188 0-0.306-0.069-0.369-0.2l-6.331-14.537c-0.394-0.9-0.813-1.531-1.25-1.887s-1.050-0.581-1.831-0.662c-0.069 0-0.131-0.037-0.188-0.106-0.063-0.069-0.087-0.15-0.087-0.244 0-0.237 0.069-0.356 0.2-0.356 0.562 0 1.156 0.025 1.775 0.075 0.575 0.050 1.112 0.075 1.619 0.075 0.513 0 1.125-0.025 1.825-0.075 0.731-0.050 1.381-0.075 1.95-0.075 0.137 0 0.2 0.119 0.2 0.356s-0.044 0.35-0.125 0.35c-0.563 0.044-1.012 0.188-1.338 0.431s-0.487 0.563-0.487 0.963c0 0.2 0.069 0.456 0.2 0.756l5.231 11.825 2.975-5.613-2.769-5.806c-0.5-1.037-0.906-1.706-1.225-2.006s-0.806-0.481-1.456-0.55c-0.063 0-0.113-0.037-0.169-0.106s-0.081-0.15-0.081-0.244c0-0.237 0.056-0.356 0.175-0.356 0.563 0 1.081 0.025 1.556 0.075 0.456 0.050 0.938 0.075 1.456 0.075 0.506 0 1.037-0.025 1.606-0.075 0.581-0.050 1.156-0.075 1.719-0.075 0.137 0 0.2 0.119 0.2 0.356s-0.038 0.35-0.125 0.35c-1.131 0.075-1.694 0.4-1.694 0.963 0 0.25 0.131 0.644 0.394 1.175l1.831 3.719 1.825-3.4c0.25-0.481 0.381-0.887 0.381-1.213 0-0.775-0.563-1.188-1.694-1.237-0.1 0-0.15-0.119-0.15-0.35 0-0.088 0.025-0.162 0.075-0.237s0.1-0.112 0.15-0.112c0.406 0 0.9 0.025 1.494 0.075 0.563 0.050 1.031 0.075 1.394 0.075 0.262 0 0.644-0.025 1.15-0.063 0.637-0.056 1.175-0.088 1.606-0.088 0.1 0 0.15 0.1 0.15 0.3 0 0.269-0.094 0.406-0.275 0.406-0.656 0.069-1.188 0.25-1.587 0.544s-0.9 0.963-1.5 2.013l-2.444 4.475 3.288 6.7 4.856-11.294c0.169-0.412 0.25-0.794 0.25-1.137 0-0.825-0.563-1.263-1.694-1.319-0.1 0-0.15-0.119-0.15-0.35 0-0.237 0.075-0.356 0.225-0.356 0.413 0 0.9 0.025 1.469 0.075 0.525 0.050 0.962 0.075 1.313 0.075 0.375 0 0.8-0.025 1.288-0.075 0.506-0.050 0.962-0.075 1.369-0.075 0.125 0 0.188 0.1 0.188 0.3z"></path>
</symbol>
</defs>
</svg>
